#!OML:ASF F:\VICON\USERDATA\INSTALL\SteveWalk\SteveWalk.ASF
:FULLY-SPECIFIED
:DEGREES
31
root -0.77084 16.2454 -40.2897 17.1397 -5.36398 -1.19584
lowerback -15.3797 2.18291 0.0674497
upperback -4.28614 2.7808 1.67751
thorax 3.98063 1.37576 2.23758
lowerneck -3.98298 -0.625658 0.772568
upperneck 7.99555 -0.510988 -4.66967
head 3.26774 -0.406986 -1.68696
rclavicle 3.50234e-014 1.15295e-014
rhumerus -10.456 10.0084 -85.0165
rradius 44.3409
rwrist -14.3333
rhand -16.9205 -36.3445
rfingers 7.12502
rthumb 9.31204 -66.1188
lclavicle 3.50234e-014 1.15295e-014
lhumerus -58.6047 23.2856 63.4038
lradius 13.7887
lwrist -29.1384
lhand -12.9272 -15.4935
lfingers 7.12502
lthumb 13.1633 14.071
rfemur -9.9934 -7.26042 22.5019
rtibia 24.8593
rfoot -29.4692 14.75
rtoes -5.03983
lfemur -47.5798 3.29488 -16.8769
ltibia 17.3762
lfoot -7.68665 9.51755
ltoes -3.57022
32
root -0.760851 16.2233 -40.0704 17.2074 -5.72852 -1.13462
lowerback -15.4793 2.25934 -0.218449
upperback -4.48195 2.92344 1.73125
thorax 3.80473 1.4484 2.47977
lowerneck -3.16807 -0.61648 0.478632
upperneck 7.81421 -0.492907 -4.65438
head 3.05018 -0.394598 -1.61622
rclavicle -4.61491e-014 -7.15625e-015
rhumerus -10.097 10.508 -84.6529
rradius 45.1553
rwrist -15.2026
rhand -16.5453 -36.4018
rfingers 7.12502
rthumb 9.67406 -66.1596
lclavicle -4.61491e-014 -7.15625e-015
lhumerus -60.4155 24.1102 61.3605
lradius 13.5015
lwrist -30.3128
lhand -13.0796 -15.4552
lfingers 7.12502
lthumb 13.0164 14.1188
rfemur -8.8274 -6.96762 22.1038
rtibia 24.0603
rfoot -29.2815 14.9848
rtoes -5.38821
lfemur -47.3797 4.0724 -17.2847
ltibia 14.8481
lfoot -7.06587 8.15577
ltoes -8.19359
33
root -0.748649 16.1923 -39.8593 17.2944 -5.66962 -1.13656
lowerback -16.3731 2.27877 -0.133792
upperback -3.43188 2.92719 1.54019
thorax 5.4127 1.42586 2.31066
lowerneck -5.35787 -0.541475 0.767901
upperneck 7.65252 -0.409115 -4.59006
head 3.41719 -0.365022 -1.66641
rclavicle 1.92573e-014 2.78299e-014
rhumerus -7.39128 10.6389 -84.2756
rradius 45.5821
rwrist -15.6599
rhand -17.1469 -36.0059
rfingers 7.12502
rthumb 9.09363 -65.7899
lclavicle 1.92573e-014 2.78299e-014
lhumerus -60.1888 26.8441 58.5134
lradius 12.8122
lwrist -33.2376
lhand -13.2106 -15.5759
lfingers 7.12502
lthumb 12.8902 14.0061
rfemur -7.68133 -6.96603 21.8779
rtibia 23.3095
rfoot -29.0106 15.359
rtoes -5.03063
lfemur -47.4349 4.93585 -17.9821
ltibia 12.603
lfoot -6.41888 6.1681
ltoes -15.8544
34
root -0.735297 16.1692 -39.6433 17.393 -5.80609 -1.1551
lowerback -15.2018 2.41318 -0.207429
upperback -4.32369 3.14019 1.46076
thorax 3.83018 1.55447 2.21951
lowerneck -4.79396 -0.54027 0.615905
upperneck 8.04414 -0.40286 -4.36273
head 3.4424 -0.355748 -1.5625
rclavicle -7.55382e-015 -8.74653e-015
rhumerus -8.43376 10.9412 -84.1995
rradius 46.5171
rwrist -15.8468
rhand -17.7794 -35.2978
rfingers 7.12502
rthumb 8.48318 -65.1074
lclavicle -7.55382e-015 -8.74653e-015
lhumerus -62.7118 26.838 55.8504
lradius 12.6195
lwrist -34.7434
lhand -13.4525 -15.9871
lfingers 7.12502
lthumb 12.657 13.6094
rfemur -6.58117 -6.88975 21.5617
rtibia 22.6852
rfoot -28.6422 16.0321
rtoes -4.59186
lfemur -47.4022 5.78956 -18.6331
ltibia 10.5884
lfoot -6.41576 4.3765
ltoes -17.5059
35
root -0.724 16.1495 -39.4199 17.4483 -6.19422 -1.15565
lowerback -15.2943 2.5744 -0.286608
upperback -4.28327 3.36924 1.34622
thorax 3.91639 1.66601 2.19116
lowerneck -4.91627 -0.597107 0.697177
upperneck 7.94941 -0.482535 -4.43293
head 3.43133 -0.395748 -1.60389
rclavicle 2.40529e-014 8.74653e-015
rhumerus -7.9752 11.2037 -83.972
rradius 47.2485
rwrist -15.8194
rhand -17.9649 -34.831
rfingers 7.12502
rthumb 8.30425 -64.6477
lclavicle 2.40529e-014 8.74653e-015
lhumerus -64.1244 27.868 53.1578
lradius 12.2861
lwrist -36.3676
lhand -13.3325 -16.4276
lfingers 7.12502
lthumb 12.7727 13.1617
rfemur -5.53943 -6.63519 21.1438
rtibia 22.1361
rfoot -28.1341 16.5119
rtoes -5.81373
lfemur -47.1167 6.06369 -18.6315
ltibia 8.95836
lfoot -6.39106 3.6214
ltoes -15.7745
36
root -0.713008 16.1267 -39.1875 17.4662 -6.46274 -1.13416
lowerback -16.2734 2.6581 -0.274125
upperback -3.63663 3.47388 1.20431
thorax 5.13349 1.69834 2.13236
lowerneck -5.25994 -0.638433 0.841692
upperneck 7.46858 -0.556589 -4.54312
head 3.32974 -0.430851 -1.66628
rclavicle 3.40419e-015 0
rhumerus -6.39458 11.4254 -83.6995
rradius 47.5522
rwrist -15.6271
rhand -18.1878 -34.4263
rfingers 7.12502
rthumb 8.08909 -64.2515
lclavicle 3.40419e-015 0
lhumerus -65.189 29.8174 49.9383
lradius 11.8768
lwrist -38.3759
lhand -12.8693 -16.6766
lfingers 7.12502
lthumb 13.2191 12.8843
rfemur -4.53804 -6.44399 20.7454
rtibia 21.7097
rfoot -27.5947 16.8631
rtoes -6.88238
lfemur -46.8412 6.17181 -18.6528
ltibia 7.78072
lfoot -6.23052 2.88198
ltoes -16.1424
37
root -0.703838 16.1006 -38.9548 17.4403 -6.56106 -1.03184
lowerback -16.3215 2.64439 -0.520921
upperback -3.52234 3.49908 1.16808
thorax 5.26746 1.7055 2.24504
lowerneck -5.5132 -0.649605 0.700784
upperneck 7.42608 -0.563496 -4.49502
head 3.36335 -0.438756 -1.62777
rclavicle 4.42793e-014 1.11319e-014
rhumerus -5.78935 11.6336 -83.4565
rradius 48.0359
rwrist -15.4762
rhand -18.5091 -34.4977
rfingers 7.12502
rthumb 7.77896 -64.3346
lclavicle 4.42793e-014 1.11319e-014
lhumerus -66.9046 31.0211 46.901
lradius 11.6109
lwrist -40.1703
lhand -12.7248 -17.0966
lfingers 7.12502
lthumb 13.3585 12.4552
rfemur -3.55334 -6.25231 20.328
rtibia 21.4723
rfoot -27.1436 17.1075
rtoes -7.86301
lfemur -46.6019 6.06865 -18.7187
ltibia 7.1175
lfoot -6.18375 2.13117
ltoes -17.3568
38
root -0.693199 16.0644 -38.7216 17.4171 -6.51135 -0.846754
lowerback -15.6983 2.63552 -0.77859
upperback -3.95479 3.54071 1.02003
thorax 4.4655 1.73863 2.19072
lowerneck -5.21983 -0.806624 0.759948
upperneck 7.45665 -0.782611 -4.46282
head 3.31038 -0.541578 -1.63394
rclavicle -1.93939e-014 -2.78299e-015
rhumerus -6.48008 11.5624 -83.5326
rradius 48.8741
rwrist -15.3898
rhand -18.7623 -34.5536
rfingers 7.12502
rthumb 7.53456 -64.3994
lclavicle -1.93939e-014 -2.78299e-015
lhumerus -68.9497 31.2875 43.8826
lradius 11.3842
lwrist -41.9317
lhand -12.885 -17.1946
lfingers 7.12502
lthumb 13.204 12.3672
rfemur -2.59031 -5.89986 19.862
rtibia 21.4368
rfoot -26.6535 17.1874
rtoes -8.83935
lfemur -46.5798 5.77905 -18.8398
ltibia 7.18262
lfoot -6.42456 1.55099
ltoes -17.2219
39
root -0.679972 16.0225 -38.483 17.4552 -6.36109 -0.760563
lowerback -15.7551 2.70656 -0.923711
upperback -4.03654 3.66755 0.844018
thorax 4.40719 1.80176 2.11119
lowerneck -5.36081 -0.860941 0.792741
upperneck 7.74144 -0.862337 -4.28502
head 3.43332 -0.577492 -1.5907
rclavicle -7.85199e-015 -9.14409e-015
rhumerus -6.81359 11.1394 -83.4732
rradius 49.7158
rwrist -15.2927
rhand -18.2163 -33.3212
rfingers 7.12502
rthumb 8.06158 -63.1474
lclavicle -7.85199e-015 -9.14409e-015
lhumerus -71.135 32.3982 39.5024
lradius 10.948
lwrist -45.4289
lhand -13.0929 -17.453
lfingers 7.12502
lthumb 13.0037 12.1217
rfemur -1.72846 -5.18697 19.5657
rtibia 21.6185
rfoot -25.7428 17.1735
rtoes -9.78193
lfemur -46.8247 5.38602 -18.8769
ltibia 7.96589
lfoot -6.95657 1.24324
ltoes -17.9809
40
root -0.671238 15.988 -38.2391 17.4522 -6.31082 -0.677442
lowerback -16.2894 2.75288 -1.15931
upperback -3.55269 3.77818 0.729927
thorax 5.19604 1.83818 2.19424
lowerneck -6.32316 -0.916303 0.773767
upperneck 7.65021 -0.949912 -4.0976
head 3.58619 -0.622292 -1.54066
rclavicle 3.51352e-014 8.34896e-015
rhumerus -6.21815 10.5838 -83.2688
rradius 50.3846
rwrist -15.049
rhand -18.5114 -34.1903
rfingers 7.12502
rthumb 7.7768 -64.0273
lclavicle 3.51352e-014 8.34896e-015
lhumerus -73.3501 34.5148 34.4204
lradius 10.4674
lwrist -49.8111
lhand -13.3539 -17.7225
lfingers 7.12502
lthumb 12.752 11.8681
rfemur -0.975755 -4.34726 19.3071
rtibia 21.9693
rfoot -24.4634 17.2303
rtoes -10.54
lfemur -47.053 5.04542 -18.9762
ltibia 9.44076
lfoot -7.74974 1.16968
ltoes -17.6288
41
root -0.661267 15.9613 -37.9863 17.4261 -6.2354 -0.441442
lowerback -15.9543 2.81728 -1.43889
upperback -4.72999 3.90549 0.597269
thorax 3.75381 1.93193 2.17044
lowerneck -2.67052 -1.04466 0.340759
upperneck 7.01342 -1.15962 -3.70121
head 2.66595 -0.683305 -1.28324
rclavicle 3.73498e-014 1.39149e-014
rhumerus -9.28101 10.0616 -83.6292
rradius 51.4095
rwrist -14.7601
rhand -18.7773 -34.1869
rfingers 7.12502
rthumb 7.5201 -64.0333
lclavicle 3.73498e-014 1.39149e-014
lhumerus -75.7823 32.5726 31.9048
lradius 10.4116
lwrist -50.9771
lhand -13.7408 -16.7985
lfingers 7.12502
lthumb 12.3791 12.8149
rfemur -0.322427 -3.87198 18.8818
rtibia 22.4215
rfoot -23.4721 17.2003
rtoes -10.2503
lfemur -47.3969 4.61013 -19.2354
ltibia 11.6056
lfoot -8.61224 1.00783
ltoes -16.4813
